<?xml version="1.0" standalone="no"?>
<!DOCTYPE svg PUBLIC "-//W3C//DTD SVG 20010904//EN"
 "http://www.w3.org/TR/2001/REC-SVG-20010904/DTD/svg10.dtd">
<svg version="1.0" xmlns="http://www.w3.org/2000/svg"
 width="920.000000pt" height="512.000000pt" viewBox="0 0 920.000000 512.000000"
 preserveAspectRatio="xMidYMid meet">

<g transform="translate(0.000000,512.000000) scale(0.100000,-0.100000)"
fill="#000000" stroke="none">
<path d="M4671 5109 c-96 -19 -205 -98 -257 -185 -82 -139 -68 -323 36 -454
39 -50 126 -107 192 -126 34 -11 79 -15 132 -12 345 15 502 435 254 675 -95
91 -224 128 -357 102z"/>
<path d="M6420 4538 c-53 -27 -87 -73 -95 -132 -6 -36 5 -73 79 -276 47 -129
86 -240 88 -247 2 -6 -217 -220 -486 -475 -269 -255 -498 -474 -508 -488 -42
-57 -35 -150 15 -207 53 -60 129 -79 200 -49 18 7 117 93 220 191 107 101 192
174 197 169 20 -21 383 -691 383 -705 -1 -9 -26 -124 -57 -255 -30 -132 -118
-516 -196 -854 -78 -338 -154 -669 -169 -735 l-28 -120 -1814 -5 c-1741 -5
-1815 -6 -1844 -23 -54 -33 -80 -82 -80 -152 0 -52 4 -67 29 -99 16 -21 47
-47 70 -57 40 -18 106 -19 1926 -19 1820 0 1886 1 1926 19 83 38 79 27 234
701 77 338 154 671 170 740 118 505 200 876 200 902 0 38 -9 56 -262 513 -113
204 -210 379 -216 391 -10 19 10 40 219 238 247 234 265 257 255 336 -5 47
-201 588 -233 643 -22 39 -93 77 -143 77 -20 0 -56 -10 -80 -22z"/>
<path d="M4065 4164 c-236 -24 -447 -49 -468 -55 -21 -5 -54 -25 -72 -42 -20
-19 -118 -182 -234 -389 -190 -336 -201 -359 -201 -408 0 -67 24 -115 72 -147
84 -56 189 -35 246 49 15 24 99 169 186 324 l159 281 226 22 c124 12 249 25
277 28 l52 5 -112 -553 -113 -554 -185 -530 c-103 -291 -194 -552 -205 -578
l-18 -48 -609 -269 c-334 -148 -617 -277 -628 -287 -117 -105 -41 -303 116
-303 41 0 144 42 704 290 360 159 666 300 679 312 14 13 31 34 38 48 7 14 90
248 185 520 95 272 175 500 179 506 3 7 152 -117 375 -313 l368 -326 -5 -46
c-20 -161 -79 -1033 -73 -1066 11 -59 77 -121 139 -130 87 -13 170 36 196 117
6 18 31 302 56 630 46 597 46 597 27 640 -15 36 -103 118 -493 461 l-474 419
94 471 c52 260 95 473 97 475 1 2 129 -90 283 -205 155 -114 296 -216 313
-225 40 -22 119 -23 158 -3 44 23 589 631 612 684 56 124 -68 267 -201 231
-56 -15 -80 -38 -312 -296 -133 -147 -206 -221 -213 -216 -6 5 -160 120 -343
255 -283 209 -340 247 -383 256 -28 6 -54 10 -58 10 -4 -1 -200 -21 -437 -45z"/>
</g>
</svg>
