<?xml version="1.0" standalone="no"?>
<!DOCTYPE svg PUBLIC "-//W3C//DTD SVG 20010904//EN"
 "http://www.w3.org/TR/2001/REC-SVG-20010904/DTD/svg10.dtd">
<svg version="1.0" xmlns="http://www.w3.org/2000/svg"
 width="900.000000pt" height="900.000000pt" viewBox="0 0 900.000000 900.000000"
 preserveAspectRatio="xMidYMid meet">

<g transform="translate(0.000000,900.000000) scale(0.100000,-0.100000)"
fill="#000000" stroke="none">
<path d="M6480 7332 c-14 -2 -268 -48 -565 -103 -297 -55 -661 -122 -810 -149
-1347 -248 -1234 -220 -1340 -331 -135 -142 -168 -334 -88 -521 23 -54 263
-495 589 -1081 52 -93 94 -172 94 -175 0 -4 -98 -61 -218 -127 -119 -65 -343
-194 -497 -286 -154 -91 -548 -325 -875 -519 -882 -523 -900 -534 -892 -541 8
-8 117 -33 217 -51 112 -21 545 -17 670 6 215 39 328 80 645 234 387 190 656
252 1084 252 413 0 680 -64 1103 -264 292 -138 410 -180 590 -211 94 -17 243
-30 243 -23 0 3 -117 216 -261 474 -144 258 -408 732 -587 1054 -179 322 -388
697 -464 834 -76 137 -138 250 -136 251 2 2 368 71 813 154 446 83 830 156
855 162 134 31 271 141 329 261 128 270 -11 596 -289 678 -64 19 -160 29 -210
22z"/>
<path d="M6915 5780 c-343 -53 -618 -303 -706 -640 -29 -110 -31 -288 -5 -404
46 -204 157 -379 315 -495 83 -61 143 -91 251 -126 115 -37 297 -46 420 -21
265 54 492 233 605 480 94 202 103 453 24 666 -92 248 -322 454 -580 519 -93
24 -243 33 -324 21z"/>
<path d="M4270 3413 c-372 -35 -547 -87 -951 -281 -280 -135 -446 -187 -671
-211 -141 -16 -408 -13 -545 4 -227 30 -346 68 -641 209 -97 47 -216 101 -264
120 -199 82 -458 139 -689 152 l-126 7 -32 -29 -32 -29 -2 -158 -2 -159 30
-27 c28 -25 42 -28 165 -39 284 -27 423 -70 770 -237 330 -159 502 -214 778
-249 142 -18 475 -21 621 -6 250 27 484 95 744 216 394 185 487 220 686 256
159 29 531 32 699 5 211 -33 316 -70 642 -228 443 -213 687 -267 1167 -256
419 9 638 64 1068 272 338 162 499 209 793 231 77 6 99 11 121 30 26 22 26 24
29 178 l3 157 -36 36 -36 36 -128 -6 c-318 -17 -523 -74 -916 -257 -449 -210
-555 -235 -975 -235 -406 1 -557 38 -960 240 -322 161 -542 226 -865 255 -102
9 -363 11 -445 3z"/>
<path d="M4340 2563 c-101 -4 -316 -33 -410 -54 -189 -44 -291 -82 -555 -206
-234 -111 -370 -166 -478 -194 -263 -67 -641 -75 -919 -19 -155 32 -282 78
-503 183 -404 192 -591 247 -948 277 -199 17 -216 0 -211 -223 3 -193 9 -200
197 -211 243 -16 427 -71 756 -230 130 -63 273 -128 319 -145 106 -40 295 -86
441 -108 146 -21 529 -24 681 -5 281 35 527 115 844 274 202 101 359 157 551
195 131 26 609 26 740 0 213 -42 299 -74 615 -227 310 -150 484 -205 770 -242
124 -16 528 -16 650 0 304 41 477 98 846 279 276 137 468 192 728 211 117 9
120 10 148 41 l28 31 0 148 c0 165 -6 183 -67 208 -28 12 -56 13 -166 4 -170
-14 -235 -24 -379 -60 -143 -36 -255 -80 -536 -211 -241 -112 -401 -170 -537
-194 -339 -59 -721 -37 -1000 56 -66 22 -226 91 -355 154 -324 157 -506 216
-776 249 -117 15 -347 24 -474 19z"/>
</g>
</svg>
